<?xml version="1.0" encoding="utf-8"?>
<?xml-stylesheet type="text/xsl" href="rss1.xsl"?>
<rss version="2.0" xmlns:atom="http://www.w3.org/2005/Atom" xmlns:content="http://purl.org/rss/1.0/modules/content/" xmlns:dc="http://purl.org/dc/elements/1.1/" xmlns:media="http://search.yahoo.com/mrss/">
<channel>
 <title>Getty</title>
 <link>http://www.gettyimg.com/</link>
 <atom:link href="http://www.gettyimg.com/" rel="self" type="application/rss+xml" />

 
                <item>
                <title><![CDATA[【Apple Music】WEB-RiP - David Guetta Feat. Kim Petras - When We Were Young (The Logical Song) 2160p AM WEB-DL AAC2.0 H.265]]></title>
                <link><![CDATA[https://sharemania.us/threads/david-guetta-feat-kim-petras-when-we-were-young-the-logical-song-2160p-am-web-dl-aac2-0-h-265.232542/]]></link>
                <description><![CDATA[<article>
<blockquote class="messageText SelectQuoteContainer ugc baseHtml">
<div style="text-align: center"><img src="https://i.imgur.com/w2Hy1z6.jpg" class="bbCodeImage LbImage" alt="[​IMG]" data-url="https://i.imgur.com/w2Hy1z6.jpg" style=""> <br>
<div style="text-align: center">​</div>
<div class="ToggleTriggerAnchor bbCodeSpoilerContainer">
<button type="button" class="button bbCodeSpoilerButton ToggleTrigger Tooltip JsOnly" data-target="> .SpoilerTarget"><span>Spoiler</span></button>
<div class="SpoilerTarget bbCodeSpoilerText">General<br>
Complete name : C:\Users\Downloads\Apple Music\David Guetta &amp; Kim Petras\When We Were Young (The Logical Song).m4v<br>
Format : MPEG-4<br>
Codec ID : M4V (isom/iso4/M4V /mp42)<br>
File size : 404 MiB<br>
Duration : 2 min 46 s<br>
Overall bit rate mode : Variable<br>
Overall bit rate : 20.3 Mb/s<br>
Frame rate : 23.976 FPS<br>
Movie name : When We Were Young (The Logical Song)<br>
Performer : David Guetta &amp; Kim Petras<br>
Genre : Dance<br>
ContentType : Music Video<br>
Recorded date : 2023-11-10 08:00:00 UTC<br>
Encoded date : 2023-11-20 19:48:01 UTC<br>
Tagged date : 2023-11-20 19:48:01 UTC<br>
Copyright : ℗ Under license to Warner Music UK Limited, © 2023 What A DJ Ltd<br>
Cover : Yes<br>
Rating : None<br>
GenreID : 1617<br>
AppleStoreCountry : Brazil<br>
AlbumTitleID : 5557599<br>
AppleStoreCatalogID : 1716354859<br>
Video<br>
ID : 2<br>
Format : HEVC<br>
Format/Info : High Efficiency Video Coding<br>
Format profile : Main 10@L5@High<br>
Codec ID : hvc1<br>
Codec ID/Info : High Efficiency Video Coding<br>
Duration : 2 min 46 s<br>
Bit rate : 20.0 Mb/s<br>
Maximum bit rate : 40.9 Mb/s<br>
Width : 2 880 pixels<br>
Height : 2 160 pixels<br>
Display aspect ratio : 4:3<br>
Frame rate mode : Constant<br>
Frame rate : 23.976 (24000/1001) FPS<br>
Color space : YUV<br>
Chroma subsampling : 4:2:0<br>
Bit depth : 10 bits<br>
Scan type : Progressive<br>
Bits/(Pixel*Frame) : 0.134<br>
Stream size : 398 MiB (99%)<br>
Title : Core Media Video<br>
Encoded date : 2023-11-13 16:49:39 UTC<br>
Tagged date : 2023-11-20 19:48:02 UTC<br>
Color range : Limited<br>
Color primaries : BT.709<br>
Transfer characteristics : BT.709<br>
Matrix coefficients : BT.709<br>
Codec configuration box : hvcC<br>
Audio<br>
ID : 1<br>
Format : AAC LC<br>
Format/Info : Advanced Audio Codec Low Complexity<br>
Codec ID : mp4a-40-2<br>
Duration : 2 min 46 s<br>
Duration_LastFrame : -15 ms<br>
Bit rate mode : Variable<br>
Bit rate : 265 kb/s<br>
Maximum bit rate : 356 kb/s<br>
Channel(s) : 2 channels<br>
Channel layout : L R<br>
Sampling rate : 48.0 kHz<br>
Frame rate : 46.875 FPS (1024 SPF)<br>
Compression mode : Lossy<br>
Stream size : 5.24 MiB (1%)<br>
Title : Core Media Audio<br>
Encoded date : 2023-11-13 16:42:12 UTC<br>
Tagged date : 2023-11-20 19:48:02 UTC</div>
</div>
<div class="bbCodeBlock bbCodeVfcHH HiddenContent">
<div class="attribution type">Hidden Content:</div>
<blockquote>You must reply before you can see the hidden data contained here.</blockquote>
</div></div>
<div class="messageTextEndMarker">&nbsp;</div>
</blockquote>
</article>]]></description>
                <author><![CDATA[Brungor]]></author>
                </item>

                
                <item>
                <title><![CDATA[【Singles (lossless)】Ariana Grande - R.E.M (no Pharrell vocals)]]></title>
                <link><![CDATA[https://sharemania.us/threads/ariana-grande-r-e-m-no-pharrell-vocals.232544/]]></link>
                <description><![CDATA[<article>
<blockquote class="messageText SelectQuoteContainer ugc baseHtml">
<div style="text-align: center">Extracted and edited using official stems<br>
<div class="bbCodeBlock bbCodeVfcHH HiddenContent">
<div class="attribution type">Hidden Content:</div>
<blockquote>You must either reply or click 'Like' to see the hidden information contained here.</blockquote>
</div></div>
<div class="messageTextEndMarker">&nbsp;</div>
</blockquote>
</article>]]></description>
                <author><![CDATA[02020203]]></author>
                </item>

                
                <item>
                <title><![CDATA[【Singles (lossless)】FLAC - Britney Spears - And Then We Kiss (Original Version) [FLAC 16bit / 44.1kHz]]]></title>
                <link><![CDATA[https://sharemania.us/threads/britney-spears-and-then-we-kiss-original-version-flac-16bit-44-1khz.232543/]]></link>
                <description><![CDATA[<article>
<blockquote class="messageText SelectQuoteContainer ugc baseHtml">
<div style="text-align: center"><img src="https://i.ibb.co/Lt4ZZFj/127.jpg" class="bbCodeImage LbImage" alt="[​IMG]" data-url="https://i.ibb.co/Lt4ZZFj/127.jpg" style=""><br>
<b>And Then We Kiss (Original Version) <br>
[FLAC 16bit / 44.1kHz]<br>
</b><br>
<span style="font-size: 26px"><span style="color: #59b300"><b>DOWNLOAD</b></span></span><br>
<b>
<div class="bbCodeBlock bbCodeVfcHH HiddenContent">
<div class="attribution type">Hidden Content:</div>
<blockquote>You must reply before you can see the hidden data contained here.</blockquote>
</div></b>​</div>
<div class="messageTextEndMarker">&nbsp;</div>
</blockquote>
</article>]]></description>
                <author><![CDATA[Britneyssbloverr]]></author>
                </item>

                </channel></rss>